<?xml version="1.0" encoding="utf-8"?>
<!-- Generator: Adobe Illustrator 21.1.0, SVG Export Plug-In . SVG Version: 6.00 Build 0)  -->
<svg version="1.1" id="Calque_1" xmlns="http://www.w3.org/2000/svg" xmlns:xlink="http://www.w3.org/1999/xlink" x="0px" y="0px"
	 viewBox="0 0 500 500" style="enable-background:new 0 0 500 500;" xml:space="preserve">
<style type="text/css">
	.st0{fill:#F0F5EE;}
	.st1{fill:#EA5E61;}
</style>
<path class="st0" d="M84.5,217.8c-3.8-3.2-8.9-4.8-15.3-4.8h-16v26c3-0.8,6.1-1.5,9.1-2.3v-15h8.4c2.4,0,4.4,0.5,5.9,1.6
	c1.5,1.1,2.6,2.3,3.2,3.8c0.6,1.5,0.9,3,0.9,4.4c0,0.4,0,0.7-0.1,1c3.1-0.6,6.3-1.2,9.4-1.8C90.1,225.3,88.2,221,84.5,217.8z"/>
<path class="st1" d="M78.4,238.3c-1.6,2-4.3,3-7.9,3h-8.1v-4.6c-3,0.7-6.1,1.5-9.1,2.3v30.8h9.1v-19.7h8.2h0.9l12.8,19.7h10.5
	L81,247.9c3.2-1.6,5.5-3.9,7-6.9c1.5-3,2.2-6.2,2.2-9.7c0-0.2,0-0.3,0-0.5c-3.1,0.6-6.3,1.2-9.4,1.8
	C80.6,234.7,79.8,236.6,78.4,238.3z"/>
<path class="st1" d="M105.5,269.8h38.8v-8.7h-29.7v-15.5h25.4v-8.7h-25.4v-9.5c-3,0.3-6.1,0.6-9.1,1V269.8z"/>
<path class="st0" d="M143.2,221.7V213h-37.7v15.4c3-0.4,6.1-0.8,9.1-1v-5.6H143.2z"/>
<path class="st1" d="M153.4,241.9c0,5.2,1.2,10,3.6,14.3c2.4,4.3,5.7,7.8,10.1,10.4c4.4,2.6,9.5,3.9,15.4,3.9c3.5,0,6.7-0.5,9.6-1.6
	c2.9-1.1,5.2-2.2,6.9-3.4l-3.8-8.1c-1.5,1.3-3.4,2.4-5.6,3.2c-2.2,0.8-4.7,1.2-7.5,1.2c-3.9,0-7.2-0.9-10.2-2.6
	c-2.9-1.7-5.2-4.2-6.8-7.3c-1.6-3.1-2.4-6.6-2.4-10.5c0-3.7,0.9-7.1,2.6-10.2c0.4-0.8,0.9-1.5,1.4-2.2c-3.4-0.6-6.8-1.1-10.2-1.5
	C154.5,231.7,153.4,236.5,153.4,241.9z"/>
<path class="st0" d="M172.3,223.8c2.9-1.8,6-2.7,9.3-2.7c4.4,0,8.7,1.5,12.9,4.4l3.6-8.5c-2.2-1.4-4.7-2.5-7.5-3.4
	c-2.8-0.9-5.9-1.3-9.2-1.3c-5.4,0-10.2,1.3-14.5,3.8c-4.2,2.5-7.5,6-9.9,10.5c-0.1,0.3-0.3,0.5-0.4,0.8c3.4,0.4,6.8,0.9,10.2,1.5
	C168.3,226.9,170.1,225.2,172.3,223.8z"/>
<path class="st1" d="M252.1,254.2c-1.5,1.9-3.3,3.5-5.4,4.8c-3,1.8-6.2,2.7-9.8,2.7c-3.6,0-7-0.9-10-2.7c-3-1.8-5.5-4.3-7.2-7.3
	c-0.7-1.3-1.3-2.6-1.7-3.9c-3.4-1.2-6.8-2.7-10.2-4.4c0.3,4.6,1.5,8.8,3.8,12.7c2.6,4.4,6.1,7.9,10.6,10.5c4.5,2.6,9.3,3.9,14.6,3.9
	c5.2,0,10-1.3,14.5-3.9c4.5-2.6,8-6.1,10.7-10.5c0.3-0.6,0.7-1.2,1-1.8C259.2,254.4,255.7,254.4,252.1,254.2z"/>
<path class="st0" d="M261.8,227c-2.7-4.5-6.2-8-10.7-10.7c-4.4-2.7-9.3-4-14.5-4c-5.3,0-10.1,1.3-14.6,4c-4.4,2.7-8,6.2-10.6,10.7
	c-2.6,4.4-3.9,9.3-3.9,14.5c0,0.6,0,1.2,0.1,1.9c3.4,1.7,6.8,3.1,10.2,4.4c-0.6-2-0.9-4-0.9-6.2c0-3.7,0.9-7.1,2.6-10.2
	c1.7-3.1,4.1-5.6,7.1-7.4c3-1.8,6.3-2.7,10-2.7c3.6,0,6.9,0.9,9.9,2.7c3,1.8,5.4,4.3,7.2,7.4c1.8,3.1,2.7,6.5,2.7,10.2
	c0,3.7-0.9,7.1-2.6,10.2c-0.5,0.9-1.1,1.8-1.7,2.6c3.6,0.1,7.1,0.1,10.7,0c2-3.9,3-8.2,3-12.7C265.8,236.3,264.5,231.5,261.8,227z"
	/>
<path class="st0" d="M312.7,241c1.5-3,2.2-6.2,2.2-9.7c0-5.7-1.9-10.2-5.7-13.4c-3.8-3.2-8.9-4.8-15.3-4.8h-16v40
	c3-0.4,6.1-0.8,9.1-1.4v-1.5h8.2c3.6-0.7,7.2-1.5,10.8-2.4C309,246.1,311.2,243.8,312.7,241z M303.1,238.3c-1.6,2-4.3,3-7.9,3H287
	v-19.6h8.4c2.4,0,4.4,0.5,5.9,1.6c1.5,1.1,2.6,2.3,3.2,3.8c0.6,1.5,0.9,3,0.9,4.4C305.5,234.1,304.7,236.3,303.1,238.3z"/>
<path class="st1" d="M295.2,250.1h0.9l12.8,19.7h10.5l-13.8-21.9c0.1-0.1,0.2-0.1,0.4-0.2C302.4,248.5,298.8,249.3,295.2,250.1
	L295.2,250.1z"/>
<path class="st1" d="M277.9,269.8h9.1v-18.2c-3,0.5-6.1,1-9.1,1.4V269.8z"/>
<path class="st1" d="M368,241.6c0,4.1-0.9,7.6-2.6,10.6c-1.7,2.9-4.2,5.2-7.3,6.7c-3.1,1.5-6.7,2.3-10.7,2.3h-8.1v-22.2
	c-0.1,0-0.2,0.1-0.3,0.1c-2.9,0.8-5.9,1.6-8.8,2.4v28.4h18.9c5.1,0,9.8-1.1,14.1-3.4c4.3-2.3,7.8-5.5,10.3-9.7
	c2.6-4.2,3.9-9,3.9-14.6c0-3.4-0.5-6.7-1.5-9.9c-3.1,0.2-6.2,0.4-9.3,0.8C367.5,235.5,368,238.4,368,241.6z"/>
<path class="st0" d="M364,217.2c-4.7-2.8-10.6-4.2-17.7-4.2h-16.2v28.4c2.9-0.8,5.9-1.6,8.8-2.4c0.1,0,0.2-0.1,0.3-0.1v-17.3h9.5
	c3.1,0,6.2,0.7,9.1,2.1c2.9,1.4,5.4,3.6,7.3,6.6c0.5,0.8,1,1.8,1.4,2.7c3.1-0.4,6.2-0.7,9.3-0.8c-0.5-1.4-1-2.8-1.7-4.2
	C372.1,223.6,368.7,220,364,217.2z"/>
<path class="st1" d="M19.7,190.4c0.9-1.5,2-2.7,3.5-3.5c1.5-0.9,3.1-1.3,4.8-1.3c1.8,0,3.4,0.4,4.8,1.3c1.5,0.9,2.7,2.1,3.5,3.5
	c0.9,1.5,1.3,3.1,1.3,4.8c0,1.8-0.4,3.4-1.3,4.9c-0.9,1.5-2,2.6-3.5,3.5c-1.5,0.9-3.1,1.3-4.9,1.3c-1.8,0-3.4-0.4-4.8-1.3
	c-1.5-0.9-2.6-2-3.5-3.5c-0.9-1.5-1.3-3.1-1.3-4.9C18.4,193.5,18.9,191.9,19.7,190.4z"/>
<path class="st0" d="M425.9,244v-31h-9.1v26.4c1.1,0.5,2.2,1,3.2,1.6C422,242,423.9,243,425.9,244z"/>
<path class="st1" d="M420,241c-1.1-0.6-2.1-1.1-3.2-1.6v30.4h9.1V244C423.9,243,422,242,420,241z"/>
<path class="st0" d="M460.8,221.7h14.7V213h-38v8.7h14.3v34.3c3,1.2,6,2.4,9.1,3.4V221.7z"/>
<path class="st1" d="M451.7,256.1v13.8h9.1v-10.3C457.7,258.4,454.7,257.3,451.7,256.1z"/>
</svg>
