<?xml version="1.0" encoding="utf-8"?>
<!-- Generator: Adobe Illustrator 21.1.0, SVG Export Plug-In . SVG Version: 6.00 Build 0)  -->
<svg version="1.1" id="Calque_1" xmlns="http://www.w3.org/2000/svg" xmlns:xlink="http://www.w3.org/1999/xlink" x="0px" y="0px"
	 viewBox="0 0 160 31" style="enable-background:new 0 0 160 31;" xml:space="preserve">
<style type="text/css">
	.st0{fill:#F0F5EE;}
	.st1{fill:#EA5E61;}
</style>
<path class="st0" d="M23.9,12c-1.3-1.1-3-1.6-5.2-1.6h-5.5v8.9c1-0.3,2.1-0.5,3.1-0.8v-5.1h2.9c0.8,0,1.5,0.2,2,0.5
	c0.5,0.4,0.9,0.8,1.1,1.3c0.2,0.5,0.3,1,0.3,1.5c0,0.1,0,0.2,0,0.3c1.1-0.2,2.2-0.4,3.2-0.6C25.8,14.6,25.2,13.1,23.9,12z"/>
<path class="st1" d="M21.8,19c-0.5,0.7-1.5,1-2.7,1h-2.8v-1.6c-1,0.2-2.1,0.5-3.1,0.8v10.5h3.1V23h2.8h0.3l4.4,6.7h3.6l-4.7-7.5
	c1.1-0.5,1.9-1.3,2.4-2.4c0.5-1,0.8-2.1,0.8-3.3c0-0.1,0-0.1,0-0.2c-1.1,0.2-2.2,0.4-3.2,0.6C22.6,17.8,22.3,18.4,21.8,19z"/>
<path class="st1" d="M31.1,29.8h13.3v-3H34.2v-5.3h8.7v-3h-8.7v-3.2c-1,0.1-2.1,0.2-3.1,0.3V29.8z"/>
<path class="st0" d="M44,13.3v-3H31.1v5.3c1-0.1,2.1-0.3,3.1-0.3v-1.9L44,13.3L44,13.3z"/>
<path class="st1" d="M47.4,20.2c0,1.8,0.4,3.4,1.2,4.9c0.8,1.5,1.9,2.7,3.4,3.6c1.5,0.9,3.2,1.3,5.3,1.3c1.2,0,2.3-0.2,3.3-0.5
	c1-0.4,1.8-0.8,2.4-1.2l-1.3-2.8c-0.5,0.4-1.2,0.8-1.9,1.1c-0.8,0.3-1.6,0.4-2.6,0.4c-1.3,0-2.5-0.3-3.5-0.9c-1-0.6-1.8-1.4-2.3-2.5
	c-0.5-1.1-0.8-2.3-0.8-3.6c0-1.3,0.3-2.4,0.9-3.5c0.1-0.3,0.3-0.5,0.5-0.8c-1.2-0.2-2.3-0.4-3.5-0.5C47.8,16.7,47.4,18.4,47.4,20.2z
	"/>
<path class="st0" d="M53.9,14c1-0.6,2-0.9,3.2-0.9c1.5,0,3,0.5,4.4,1.5l1.2-2.9c-0.8-0.5-1.6-0.9-2.6-1.2c-1-0.3-2-0.4-3.1-0.4
	c-1.8,0-3.5,0.4-5,1.3c-1.4,0.9-2.6,2-3.4,3.6c0,0.1-0.1,0.2-0.1,0.3c1.2,0.1,2.3,0.3,3.5,0.5C52.5,15.1,53.2,14.5,53.9,14z"/>
<path class="st1" d="M81.2,24.4c-0.5,0.6-1.1,1.2-1.8,1.6c-1,0.6-2.1,0.9-3.3,0.9s-2.4-0.3-3.4-0.9c-1-0.6-1.9-1.5-2.5-2.5
	c-0.2-0.4-0.4-0.9-0.6-1.3c-1.2-0.4-2.3-0.9-3.5-1.5c0.1,1.6,0.5,3,1.3,4.3c0.9,1.5,2.1,2.7,3.6,3.6s3.2,1.3,5,1.3
	c1.8,0,3.4-0.4,5-1.3c1.5-0.9,2.7-2.1,3.7-3.6c0.1-0.2,0.2-0.4,0.3-0.6C83.6,24.5,82.4,24.5,81.2,24.4z"/>
<path class="st0" d="M84.5,15.1c-0.9-1.5-2.1-2.7-3.7-3.7c-1.5-0.9-3.2-1.4-5-1.4c-1.8,0-3.4,0.4-5,1.4c-1.5,0.9-2.7,2.1-3.6,3.7
	c-0.9,1.5-1.3,3.2-1.3,5c0,0.2,0,0.4,0,0.6c1.2,0.6,2.3,1.1,3.5,1.5c-0.2-0.7-0.3-1.4-0.3-2.1c0-1.3,0.3-2.4,0.9-3.5
	c0.6-1.1,1.4-1.9,2.4-2.5c1-0.6,2.2-0.9,3.4-0.9c1.2,0,2.4,0.3,3.4,0.9c1,0.6,1.8,1.5,2.5,2.5c0.6,1.1,0.9,2.2,0.9,3.5
	c0,1.3-0.3,2.4-0.9,3.5c-0.2,0.3-0.4,0.6-0.6,0.9c1.2,0,2.4,0,3.7,0c0.7-1.3,1-2.8,1-4.3C85.8,18.3,85.4,16.7,84.5,15.1z"/>
<path class="st0" d="M101.9,19.9c0.5-1,0.8-2.1,0.8-3.3c0-1.9-0.6-3.5-1.9-4.6c-1.3-1.1-3-1.6-5.2-1.6H90v13.7
	c1-0.1,2.1-0.3,3.1-0.5v-0.5h2.8c1.2-0.2,2.5-0.5,3.7-0.8C100.6,21.7,101.3,20.9,101.9,19.9z M98.6,19c-0.5,0.7-1.5,1-2.7,1h-2.8
	v-6.7H96c0.8,0,1.5,0.2,2,0.5c0.5,0.4,0.9,0.8,1.1,1.3c0.2,0.5,0.3,1,0.3,1.5C99.4,17.6,99.1,18.3,98.6,19z"/>
<path class="st1" d="M95.9,23h0.3l4.4,6.7h3.6l-4.7-7.5c0,0,0.1,0,0.1-0.1C98.3,22.5,97.1,22.8,95.9,23L95.9,23z"/>
<path class="st1" d="M90,29.8h3.1v-6.2c-1,0.2-2.1,0.3-3.1,0.5V29.8z"/>
<path class="st1" d="M120.7,20.1c0,1.4-0.3,2.6-0.9,3.6c-0.6,1-1.4,1.8-2.5,2.3s-2.3,0.8-3.7,0.8h-2.8v-7.6c0,0-0.1,0-0.1,0
	c-1,0.3-2,0.5-3,0.8v9.7h6.5c1.7,0,3.3-0.4,4.8-1.2c1.5-0.8,2.7-1.9,3.5-3.3c0.9-1.4,1.3-3.1,1.3-5c0-1.2-0.2-2.3-0.5-3.4
	c-1.1,0.1-2.1,0.1-3.2,0.3C120.6,18,120.7,19,120.7,20.1z"/>
<path class="st0" d="M119.4,11.8c-1.6-1-3.6-1.4-6-1.4h-5.5v9.7c1-0.3,2-0.5,3-0.8c0,0,0.1,0,0.1,0v-5.9h3.2c1.1,0,2.1,0.2,3.1,0.7
	c1,0.5,1.8,1.2,2.5,2.3c0.2,0.3,0.3,0.6,0.5,0.9c1.1-0.1,2.1-0.2,3.2-0.3c-0.2-0.5-0.3-1-0.6-1.4C122.2,14,121,12.8,119.4,11.8z"/>
<path class="st1" d="M1.8,2.6C2.1,2.1,2.5,1.7,3,1.4C3.5,1.1,4,1,4.6,1c0.6,0,1.2,0.1,1.6,0.4c0.5,0.3,0.9,0.7,1.2,1.2
	c0.3,0.5,0.4,1.1,0.4,1.6c0,0.6-0.1,1.2-0.4,1.7C7.1,6.5,6.8,6.8,6.3,7.1S5.2,7.6,4.6,7.6S3.4,7.5,2.9,7.1C2.4,6.8,2.1,6.5,1.7,6
	S1.3,4.9,1.3,4.3C1.3,3.7,1.5,3.2,1.8,2.6z"/>
<path class="st0" d="M140.5,20.9V10.4h-3.1v9c0.4,0.2,0.8,0.3,1.1,0.5C139.2,20.3,139.8,20.6,140.5,20.9z"/>
<path class="st1" d="M138.5,19.9c-0.4-0.2-0.7-0.4-1.1-0.5v10.4h3.1v-8.8C139.8,20.6,139.2,20.3,138.5,19.9z"/>
<path class="st0" d="M152.4,13.3h5v-3h-13v3h4.9V25c1,0.4,2,0.8,3.1,1.2L152.4,13.3L152.4,13.3z"/>
<path class="st1" d="M149.3,25.1v4.7h3.1v-3.5C151.4,25.9,150.4,25.5,149.3,25.1z"/>
</svg>
